<?xml version="1.0" encoding="UTF-8" standalone="no"?>
<!DOCTYPE svg PUBLIC "-//W3C//DTD SVG 1.1//EN" "http://www.w3.org/Graphics/SVG/1.1/DTD/svg11.dtd">
<svg width="100%" height="100%" viewBox="0 0 100 100" version="1.1" xmlns="http://www.w3.org/2000/svg" xmlns:xlink="http://www.w3.org/1999/xlink" xml:space="preserve" xmlns:serif="http://www.serif.com/" style="fill-rule:evenodd;clip-rule:evenodd;stroke-linecap:round;stroke-linejoin:round;stroke-miterlimit:1.5;">
    <g transform="matrix(1,0,0,1,-262,-111)">
        <g id="ArtBoard1" transform="matrix(1.1085,0,0,1.1085,-28.9266,-10.9317)">
            <rect x="262.451" y="109.997" width="90.212" height="90.212" style="fill:none;"/>
            <clipPath id="_clip1">
                <rect x="262.451" y="109.997" width="90.212" height="90.212"/>
            </clipPath>
            <g clip-path="url(#_clip1)">
                <g transform="matrix(1.05395,0,0,1.05395,-24.2391,-17.4039)">
                    <path d="M314.812,120.88C338.432,120.88 357.609,140.056 357.609,163.677C357.609,187.297 338.432,206.474 314.812,206.474C291.192,206.474 272.015,187.297 272.015,163.677C272.015,140.056 291.192,120.88 314.812,120.88ZM314.812,122.744C337.403,122.744 355.745,141.085 355.745,163.677C355.745,186.268 337.403,204.609 314.812,204.609C292.221,204.609 273.879,186.268 273.879,163.677C273.879,141.085 292.221,122.744 314.812,122.744Z"/>
                </g>
                <g transform="matrix(1.08941,0,0,0.902121,-33.2671,13.1439)">
                    <path d="M288.955,196.337L288.955,196.044C288.955,184.355 296.802,174.878 306.482,174.878L319.221,174.878C323.869,174.878 328.327,177.108 331.614,181.078C334.901,185.047 336.748,190.431 336.748,196.044L336.748,196.046" style="fill:none;stroke:black;stroke-width:1.96px;"/>
                </g>
                <g transform="matrix(1.13989,0,0,1.13989,-53.4417,-25.8299)">
                    <path d="M316.696,132.542C325.527,132.542 332.696,139.712 332.696,148.542C332.696,157.373 325.527,164.542 316.696,164.542C307.866,164.542 300.696,157.373 300.696,148.542C300.696,139.712 307.866,132.542 316.696,132.542ZM316.696,134.266C324.575,134.266 330.972,140.663 330.972,148.542C330.972,156.422 324.575,162.819 316.696,162.819C308.817,162.819 302.42,156.422 302.42,148.542C302.42,140.663 308.817,134.266 316.696,134.266Z"/>
                </g>
            </g>
        </g>
    </g>
</svg>
