<?xml version="1.0" encoding="UTF-8" standalone="no"?>
<!DOCTYPE svg PUBLIC "-//W3C//DTD SVG 1.1//EN" "http://www.w3.org/Graphics/SVG/1.1/DTD/svg11.dtd">
<svg width="100%" height="100%" viewBox="0 0 40 40" version="1.1" xmlns="http://www.w3.org/2000/svg" xmlns:xlink="http://www.w3.org/1999/xlink" xml:space="preserve" xmlns:serif="http://www.serif.com/" style="fill-rule:evenodd;clip-rule:evenodd;stroke-linecap:round;stroke-linejoin:round;stroke-miterlimit:1.5;">
    <g transform="matrix(1,0,0,1,-48.9576,0)">
        <g id="ArtBoard2" transform="matrix(1,0,0,1,48.9576,0)">
            <rect x="0" y="0" width="40" height="40" style="fill:none;"/>
            <g transform="matrix(1,0,0,1,-48.3867,-9.66449)">
                <path d="M51,18.907C51,18.907 52.253,17.321 53.182,16.146C53.8,15.364 54.743,14.907 55.741,14.907C55.742,14.907 55.742,14.907 55.743,14.907C56.74,14.907 57.683,15.364 58.302,16.146C58.684,16.63 59.122,17.184 59.504,17.668C60.123,18.45 61.066,18.907 62.063,18.907C62.064,18.907 62.065,18.907 62.065,18.907C63.063,18.907 64.006,18.45 64.624,17.668C65.007,17.184 65.444,16.63 65.827,16.146C66.445,15.364 67.388,14.907 68.386,14.907C68.386,14.907 68.387,14.907 68.388,14.907C69.385,14.907 70.328,15.364 70.947,16.146C71.329,16.63 71.767,17.184 72.149,17.668C72.768,18.45 73.71,18.907 74.708,18.907C74.709,18.907 74.709,18.907 74.71,18.907C75.708,18.907 76.651,18.45 77.269,17.668C77.652,17.184 78.089,16.63 78.471,16.146C79.09,15.364 80.033,14.907 81.031,14.907C81.031,14.907 81.032,14.907 81.032,14.907C82.03,14.907 82.973,15.364 83.592,16.146C84.52,17.321 85.773,18.907 85.773,18.907" style="fill:none;stroke:black;stroke-width:3.27px;"/>
            </g>
            <g transform="matrix(1,0,0,1,-48.3867,3.09298)">
                <path d="M51,18.907C51,18.907 52.253,17.321 53.182,16.146C53.8,15.364 54.743,14.907 55.741,14.907C55.742,14.907 55.742,14.907 55.743,14.907C56.74,14.907 57.683,15.364 58.302,16.146C58.684,16.63 59.122,17.184 59.504,17.668C60.123,18.45 61.066,18.907 62.063,18.907C62.064,18.907 62.065,18.907 62.065,18.907C63.063,18.907 64.006,18.45 64.624,17.668C65.007,17.184 65.444,16.63 65.827,16.146C66.445,15.364 67.388,14.907 68.386,14.907C68.386,14.907 68.387,14.907 68.388,14.907C69.385,14.907 70.328,15.364 70.947,16.146C71.329,16.63 71.767,17.184 72.149,17.668C72.768,18.45 73.71,18.907 74.708,18.907C74.709,18.907 74.709,18.907 74.71,18.907C75.708,18.907 76.651,18.45 77.269,17.668C77.652,17.184 78.089,16.63 78.471,16.146C79.09,15.364 80.033,14.907 81.031,14.907C81.031,14.907 81.032,14.907 81.032,14.907C82.03,14.907 82.973,15.364 83.592,16.146C84.52,17.321 85.773,18.907 85.773,18.907" style="fill:none;stroke:black;stroke-width:3.27px;"/>
            </g>
            <g transform="matrix(1,0,0,1,-48.3867,15.8504)">
                <path d="M51,18.907C51,18.907 52.253,17.321 53.182,16.146C53.8,15.364 54.743,14.907 55.741,14.907C55.742,14.907 55.742,14.907 55.743,14.907C56.74,14.907 57.683,15.364 58.302,16.146C58.684,16.63 59.122,17.184 59.504,17.668C60.123,18.45 61.066,18.907 62.063,18.907C62.064,18.907 62.065,18.907 62.065,18.907C63.063,18.907 64.006,18.45 64.624,17.668C65.007,17.184 65.444,16.63 65.827,16.146C66.445,15.364 67.388,14.907 68.386,14.907C68.386,14.907 68.387,14.907 68.388,14.907C69.385,14.907 70.328,15.364 70.947,16.146C71.329,16.63 71.767,17.184 72.149,17.668C72.768,18.45 73.71,18.907 74.708,18.907C74.709,18.907 74.709,18.907 74.71,18.907C75.708,18.907 76.651,18.45 77.269,17.668C77.652,17.184 78.089,16.63 78.471,16.146C79.09,15.364 80.033,14.907 81.031,14.907C81.031,14.907 81.032,14.907 81.032,14.907C82.03,14.907 82.973,15.364 83.592,16.146C84.52,17.321 85.773,18.907 85.773,18.907" style="fill:none;stroke:black;stroke-width:3.27px;"/>
            </g>
        </g>
    </g>
</svg>
