<?xml version="1.0" encoding="UTF-8" standalone="no"?>
<!DOCTYPE svg PUBLIC "-//W3C//DTD SVG 1.1//EN" "http://www.w3.org/Graphics/SVG/1.1/DTD/svg11.dtd">
<svg width="100%" height="100%" viewBox="0 0 200 200" version="1.1" xmlns="http://www.w3.org/2000/svg" xmlns:xlink="http://www.w3.org/1999/xlink" xml:space="preserve" xmlns:serif="http://www.serif.com/" style="fill-rule:evenodd;clip-rule:evenodd;stroke-linejoin:round;stroke-miterlimit:2;">
    <g id="ArtBoard2" transform="matrix(1,0,0,0.990721,261.353,109.637)">
        <rect x="-261.353" y="-110.664" width="199.981" height="201.873" style="fill:none;"/>
        <g transform="matrix(1,0,0,1,-0.00964858,-2.01873)">
            <g transform="matrix(1,0,0,1.00937,-261.239,-107.631)">
                <g transform="matrix(1.10711,0,0,1.07074,14.891,23.3911)">
                    <path d="M20.001,5.445C16.991,5.445 14.483,7.872 14.483,10.87L14.483,65.133C14.483,65.785 15.049,66.355 15.777,66.355C16.425,66.355 16.991,65.785 16.991,65.133L16.991,36.142C17.805,36.709 18.862,37.032 20.001,37.032C22.524,37.032 24.63,35.334 25.277,33.066C25.439,32.904 25.52,32.661 25.52,32.418L25.52,10.87C25.52,7.872 23.012,5.445 20.001,5.445ZM20.001,34.606C18.293,34.606 16.991,33.228 16.991,31.608L16.991,10.87C16.991,9.249 18.293,7.872 20.001,7.872C21.629,7.872 23.012,9.249 23.012,10.87L23.012,31.608C23.012,33.228 21.629,34.606 20.001,34.606Z" style="fill-rule:nonzero;"/>
                    <path d="M43.471,66.355C44.12,66.355 44.689,65.789 44.689,65.141C44.689,64.413 44.12,63.928 43.471,63.928L39.166,63.928C37.541,63.928 36.16,62.547 36.16,60.842L36.16,6.664C36.16,6.014 35.594,5.445 34.947,5.445C34.3,5.445 33.734,6.014 33.734,6.664L33.734,60.842C33.734,63.928 36.16,66.355 39.166,66.355L43.471,66.355Z" style="fill-rule:nonzero;"/>
                    <path d="M61.828,10.969C61.828,7.953 59.32,5.445 56.309,5.445C53.299,5.445 50.791,7.953 50.791,10.969L50.791,65.14C50.791,65.869 51.357,66.355 52.085,66.355C52.733,66.355 53.299,65.869 53.299,65.14L53.299,37.276L59.32,37.276L59.32,65.14C59.32,65.869 59.886,66.355 60.533,66.355C61.261,66.355 61.828,65.869 61.828,65.14L61.828,10.969ZM53.299,34.768L53.299,10.969C53.299,9.257 54.682,7.953 56.309,7.953C58.018,7.953 59.32,9.257 59.32,10.969L59.32,34.768L53.299,34.768Z" style="fill-rule:nonzero;"/>
                    <path d="M75.804,66.355C78.814,66.355 81.241,63.928 81.241,60.841C81.241,60.191 80.755,59.622 80.027,59.622C79.38,59.622 78.814,60.191 78.814,60.841C78.814,62.547 77.431,63.928 75.804,63.928C74.095,63.928 72.793,62.547 72.793,60.841L72.793,10.878C72.793,9.253 74.095,7.872 75.804,7.872C77.431,7.872 78.814,9.253 78.814,10.878C78.814,11.609 79.38,12.178 80.027,12.178C80.755,12.178 81.241,11.609 81.241,10.878C81.241,7.872 78.814,5.445 75.804,5.445C72.712,5.445 70.285,7.872 70.285,10.878L70.285,60.841C70.285,63.928 72.712,66.355 75.804,66.355Z" style="fill-rule:nonzero;"/>
                    <path d="M99.44,37.113C100.087,37.113 100.654,36.547 100.654,35.9C100.654,35.253 100.087,34.687 99.44,34.687L92.125,34.687L92.125,10.879C92.125,9.253 93.508,7.872 95.135,7.872C96.844,7.872 98.146,9.253 98.146,10.879C98.146,11.61 98.712,12.179 99.44,12.179C100.087,12.179 100.654,11.61 100.654,10.879C100.654,7.872 98.227,5.445 95.135,5.445C92.125,5.445 89.698,7.872 89.698,10.879L89.698,60.84C89.698,63.928 92.125,66.355 95.135,66.355C98.227,66.355 100.654,63.928 100.654,60.84C100.654,60.19 100.087,59.622 99.44,59.622C98.712,59.622 98.146,60.19 98.146,60.84C98.146,62.547 96.844,63.928 95.135,63.928C93.508,63.928 92.125,62.547 92.125,60.84L92.125,37.113L99.44,37.113Z" style="fill-rule:nonzero;"/>
                </g>
                <g transform="matrix(1.22784,0,0,1.22784,12.0276,13.9266)">
                    <path d="M41.367,72.994C40.783,72.994 40.272,73.488 40.272,74.053L40.272,98.423L34.844,98.423L34.844,74.053C34.844,73.488 34.333,72.994 33.75,72.994C33.093,72.994 32.656,73.488 32.656,74.053L32.656,125.044C32.656,125.613 33.093,126.11 33.75,126.11C34.333,126.11 34.844,125.613 34.844,125.044L34.844,100.539L40.272,100.539L40.272,125.044C40.272,125.613 40.783,126.11 41.367,126.11C42.023,126.11 42.534,125.613 42.534,125.044L42.534,74.053C42.534,73.488 42.023,72.994 41.367,72.994Z" style="fill-rule:nonzero;"/>
                    <path d="M54.842,126.11C57.557,126.11 59.818,123.994 59.818,121.302L59.818,77.74C59.818,75.119 57.557,72.994 54.842,72.994C52.128,72.994 49.867,75.119 49.867,77.74L49.867,121.302C49.867,123.994 52.128,126.11 54.842,126.11ZM54.842,75.119C56.31,75.119 57.557,76.323 57.557,77.74L57.557,121.302C57.557,122.79 56.31,123.994 54.842,123.994C53.302,123.994 52.128,122.79 52.128,121.302L52.128,77.74C52.128,76.323 53.302,75.119 54.842,75.119Z" style="fill-rule:nonzero;"/>
                    <path d="M76.077,126.11C76.663,126.11 77.176,125.616 77.176,125.052C77.176,124.417 76.663,123.994 76.077,123.994L72.195,123.994C70.731,123.994 69.486,122.79 69.486,121.302L69.486,74.056C69.486,73.49 68.975,72.994 68.392,72.994C67.808,72.994 67.298,73.49 67.298,74.056L67.298,121.302C67.298,123.994 69.486,126.11 72.195,126.11L76.077,126.11Z" style="fill-rule:nonzero;"/>
                    <path d="M87.653,72.994L83.845,72.994C83.262,72.994 82.751,73.488 82.751,74.052L82.751,125.052C82.751,125.616 83.262,126.11 83.845,126.11L87.653,126.11C90.441,126.11 92.629,123.994 92.629,121.302L92.629,77.731C92.629,75.11 90.441,72.994 87.653,72.994ZM90.441,121.302C90.441,122.789 89.194,123.994 87.653,123.994L84.939,123.994L84.939,75.11L87.653,75.11C89.194,75.11 90.441,76.314 90.441,77.731L90.441,121.302Z" style="fill-rule:nonzero;"/>
                    <path d="M109.039,100.61C109.623,100.61 110.133,100.116 110.133,99.552C110.133,98.988 109.623,98.494 109.039,98.494L102.443,98.494L102.443,77.732C102.443,76.314 103.69,75.11 105.158,75.11C106.698,75.11 107.872,76.314 107.872,77.732C107.872,78.369 108.383,78.865 109.039,78.865C109.623,78.865 110.133,78.369 110.133,77.732C110.133,75.11 107.945,72.994 105.158,72.994C102.443,72.994 100.255,75.11 100.255,77.732L100.255,121.301C100.255,123.994 102.443,126.11 105.158,126.11C107.945,126.11 110.133,123.994 110.133,121.301C110.133,120.734 109.623,120.238 109.039,120.238C108.383,120.238 107.872,120.734 107.872,121.301C107.872,122.789 106.698,123.994 105.158,123.994C103.69,123.994 102.443,122.789 102.443,121.301L102.443,100.61L109.039,100.61Z" style="fill-rule:nonzero;"/>
                    <path d="M122.808,72.994C120.02,72.994 117.832,75.11 117.832,77.731L117.832,125.047C117.832,125.614 118.343,126.11 118.926,126.11C119.583,126.11 120.02,125.614 120.02,125.047L120.02,100.964L122.221,100.964L125.523,125.189C125.595,125.685 126.033,126.11 126.617,126.11L126.762,126.11C127.346,126.039 127.784,125.472 127.711,124.906L124.422,100.964C124.642,100.964 124.789,100.964 124.936,100.893C126.617,100.114 127.711,98.414 127.711,96.572L127.711,77.731C127.711,75.11 125.523,72.994 122.808,72.994ZM125.523,96.572C125.523,97.493 125.009,98.343 124.129,98.839L120.02,98.839L120.02,77.731C120.02,76.314 121.268,75.11 122.808,75.11C124.275,75.11 125.523,76.314 125.523,77.731L125.523,96.572Z" style="fill-rule:nonzero;"/>
                </g>
            </g>
            <g transform="matrix(0.981127,0,0,0.990316,-258.183,-107.345)">
                <path d="M190.424,8.88L6.961,8.88L6.961,192.342L190.424,192.342L190.424,8.88ZM188.204,11.1L188.204,190.122C188.204,190.122 9.181,190.122 9.181,190.122C9.181,190.122 9.181,11.1 9.181,11.1C9.181,11.1 188.204,11.1 188.204,11.1L188.204,11.1Z"/>
            </g>
        </g>
    </g>
</svg>
