<?xml version="1.0" encoding="UTF-8" standalone="no"?>
<!DOCTYPE svg PUBLIC "-//W3C//DTD SVG 1.1//EN" "http://www.w3.org/Graphics/SVG/1.1/DTD/svg11.dtd">
<svg width="100%" height="100%" viewBox="0 0 100 100" version="1.1" xmlns="http://www.w3.org/2000/svg" xmlns:xlink="http://www.w3.org/1999/xlink" xml:space="preserve" xmlns:serif="http://www.serif.com/" style="fill-rule:evenodd;clip-rule:evenodd;stroke-linecap:round;stroke-linejoin:round;stroke-miterlimit:1.5;">
    <g transform="matrix(1,0,0,1,-2484,-1084)">
        <g id="ArtBoard6" transform="matrix(1.0101,0,0,1.0101,-25.0909,-10.9495)">
            <rect x="2484" y="1084" width="99" height="99" style="fill:none;"/>
            <g transform="matrix(1.39765,0,0,1.39765,-1016.52,-450.034)">
                <path d="M2544.88,1100.2C2544.75,1099.66 2544.3,1099.27 2543.75,1099.21C2541.26,1098.93 2538.74,1098.93 2536.25,1099.21C2535.7,1099.27 2535.26,1099.66 2535.12,1100.2C2534.6,1102.25 2534.11,1104.31 2533.65,1106.38C2533.54,1106.85 2533.18,1107.23 2532.71,1107.36C2530.73,1107.92 2528.82,1108.71 2527.03,1109.72C2526.6,1109.96 2526.08,1109.94 2525.67,1109.68C2523.88,1108.55 2522.07,1107.44 2520.26,1106.35C2519.78,1106.07 2519.19,1106.11 2518.76,1106.45C2516.8,1108.02 2515.02,1109.8 2513.45,1111.76C2513.11,1112.19 2513.07,1112.78 2513.36,1113.26C2514.44,1115.07 2515.55,1116.88 2516.68,1118.67C2516.94,1119.08 2516.96,1119.6 2516.72,1120.03C2515.72,1121.82 2514.93,1123.73 2514.36,1125.71C2514.23,1126.18 2513.85,1126.54 2513.38,1126.65C2511.31,1127.11 2509.25,1127.6 2507.2,1128.12C2506.66,1128.25 2506.27,1128.7 2506.21,1129.25C2505.93,1131.74 2505.93,1134.26 2506.21,1136.75C2506.27,1137.3 2506.66,1137.75 2507.2,1137.88C2509.25,1138.4 2511.31,1138.89 2513.38,1139.35C2513.85,1139.46 2514.23,1139.82 2514.36,1140.29C2514.93,1142.27 2515.72,1144.18 2516.72,1145.97C2516.96,1146.4 2516.94,1146.92 2516.68,1147.33C2515.55,1149.12 2514.44,1150.93 2513.35,1152.74C2513.07,1153.22 2513.11,1153.81 2513.45,1154.25C2515.02,1156.2 2516.8,1157.98 2518.76,1159.55C2519.19,1159.89 2519.78,1159.93 2520.26,1159.64C2522.07,1158.56 2523.88,1157.45 2525.67,1156.32C2526.08,1156.06 2526.6,1156.04 2527.03,1156.28C2528.82,1157.29 2530.73,1158.08 2532.71,1158.64C2533.18,1158.77 2533.54,1159.15 2533.65,1159.62C2534.11,1161.69 2534.6,1163.75 2535.12,1165.8C2535.25,1166.34 2535.7,1166.73 2536.25,1166.79C2538.74,1167.07 2541.26,1167.07 2543.75,1166.79C2544.3,1166.73 2544.74,1166.34 2544.88,1165.8C2545.4,1163.75 2545.89,1161.69 2546.35,1159.62C2546.46,1159.15 2546.82,1158.77 2547.29,1158.64C2549.27,1158.08 2551.18,1157.29 2552.97,1156.28C2553.4,1156.04 2553.92,1156.06 2554.33,1156.32C2556.12,1157.45 2557.93,1158.56 2559.74,1159.65C2560.22,1159.93 2560.81,1159.89 2561.24,1159.55C2563.2,1157.98 2564.98,1156.2 2566.55,1154.24C2566.89,1153.81 2566.93,1153.22 2566.64,1152.74C2565.56,1150.93 2564.45,1149.12 2563.32,1147.33C2563.06,1146.92 2563.04,1146.4 2563.28,1145.97C2564.28,1144.18 2565.08,1142.27 2565.64,1140.29C2565.77,1139.82 2566.15,1139.46 2566.62,1139.35C2568.69,1138.89 2570.75,1138.4 2572.8,1137.88C2573.34,1137.75 2573.73,1137.3 2573.79,1136.75C2574.07,1134.26 2574.07,1131.74 2573.79,1129.25C2573.73,1128.7 2573.34,1128.26 2572.8,1128.12C2570.75,1127.6 2568.69,1127.11 2566.62,1126.65C2566.15,1126.54 2565.77,1126.18 2565.64,1125.71C2565.08,1123.73 2564.28,1121.82 2563.28,1120.03C2563.04,1119.6 2563.06,1119.08 2563.32,1118.67C2564.45,1116.88 2565.56,1115.07 2566.65,1113.26C2566.93,1112.78 2566.89,1112.19 2566.55,1111.76C2564.98,1109.8 2563.2,1108.02 2561.24,1106.45C2560.81,1106.11 2560.22,1106.07 2559.74,1106.36C2557.93,1107.44 2556.12,1108.55 2554.33,1109.68C2553.92,1109.94 2553.4,1109.96 2552.97,1109.72C2551.18,1108.71 2549.27,1107.92 2547.29,1107.36C2546.82,1107.23 2546.46,1106.85 2546.35,1106.38C2545.89,1104.31 2545.4,1102.25 2544.88,1100.2ZM2540,1117.57C2548.52,1117.57 2555.43,1124.48 2555.43,1133C2555.43,1141.52 2548.52,1148.43 2540,1148.43C2531.48,1148.43 2524.57,1141.52 2524.57,1133C2524.57,1124.48 2531.48,1117.57 2540,1117.57Z" style="fill:none;stroke:rgb(129,122,134);stroke-width:2.44px;"/>
            </g>
        </g>
    </g>
</svg>
